PathFileType	3	(X/Y/Z)	C:\Users\koon_\Desktop\
DataRate	CameraRate	NumFrames	NumMarkers	Units	OrigDataRate	OrigDataStartFrame	OrigNumFrames
100.0	100.0	12	27	mm	100.0	1	4762	
Frame#	Time	get:LFHD			get:RFHD			get:LBHD			get:RBHD			get:C7			get:T10			get:CLAV			get:STRN			get:RBAK			get:LSHO			get:LUPA			get:LELB			get:LFRA			get:LWRA			get:LWRB			get:LFIN			get:RSHO			get:RUPA			get:RELB			get:RFRA			get:RWRA			get:RWRB			get:RFIN			get:LASI			get:RASI			get:LPSI			get:RPSI			
		X1	Y1	Z1	X2	Y2	Z2	X3	Y3	Z3	X4	Y4	Z4	X5	Y5	Z5	X6	Y6	Z6	X7	Y7	Z7	X8	Y8	Z8	X9	Y9	Z9	X10	Y10	Z10	X11	Y11	Z11	X12	Y12	Z12	X13	Y13	Z13	X14	Y14	Z14	X15	Y15	Z15	X16	Y16	Z16	X17	Y17	Z17	X18	Y18	Z18	X19	Y19	Z19	X20	Y20	Z20	X21	Y21	Z21	X22	Y22	Z22	X23	Y23	Z23	X24	Y24	Z24	X25	Y25	Z25	X26	Y26	Z26	X27	Y27	Z27	
1	0	108.67643	1556.0048	-31.750072	-32.374931	1553.599	-29.975979	83.075607	1556.1625	-191.99603	-44.823799	1529.2185	-195.24586	39.674595	1341.2157	-214.05521	28.159555	1130.1523	-256.78421	38.491268	1267.0215	-22.887743	45.35247	1074.0789	17.94095	-40.084778	1265.234	-242.48596	172.20329	1341.8419	-136.91156	263.63089	1204.9945	-135.53145	284.75662	1008.4684	-151.48529	295.79346	878.90845	-80.463196	273.79974	798.97449	-58.027229	310.94955	800.03088	-136.11301	341.78619	736.87366	-65.511673	-96.238457	1334.8745	-129.30745	-199.11861	1119.5769	-106.00281	-191.89992	1002.6563	-169.77673	-224.76447	952.88019	-91.39859	-224.63463	795.63098	-58.258556	-227.55449	791.76831	-141.82156	-278.86664	727.55432	-79.71537	168.90468	893.73322	-24.731903	-97.637703	876.83075	-16.348551	70.202766	942.91901	-239.01021	-19.175434	940.8924	-238.17529
2	0.01	108.56819	1556.0518	-31.722694	-32.485794	1553.5929	-30.007736	83.035912	1556.1483	-191.98727	-44.877823	1529.166	-195.27455	39.694359	1341.2103	-214.02573	28.128973	1130.106	-256.68512	38.455845	1267.0513	-22.897612	45.324688	1074.0845	17.975595	-40.069992	1265.2081	-242.47736	172.16589	1341.8453	-136.87831	263.57825	1204.986	-135.41939	284.72385	1008.5031	-151.37386	295.72845	878.94214	-80.310081	273.7774	798.97375	-57.955677	310.9476	800.02441	-136.02876	341.74988	736.88782	-65.417633	-96.264465	1334.8519	-129.2829	-199.13492	1119.5378	-106.009	-191.85196	1002.6331	-169.75047	-224.78571	952.82452	-91.383125	-224.62213	795.61865	-58.600616	-227.44675	791.72156	-141.81839	-278.78525	727.495	-79.768974	168.88931	893.71246	-24.651249	-97.640007	876.8111	-16.309027	70.191544	942.92694	-238.92851	-19.188175	940.91565	-238.09955
3	0.02	108.47832	1556.0715	-31.716887	-32.579945	1553.5953	-30.058786	82.974197	1556.1217	-191.99481	-44.931103	1529.1263	-195.31863	39.675339	1341.2255	-213.97012	28.175629	1130.1014	-256.65842	38.409458	1267.0176	-22.783297	45.291031	1074.0793	18.040243	-40.056965	1265.1848	-242.44899	172.14828	1341.8563	-136.81377	263.56259	1204.9993	-135.33806	284.71622	1008.5225	-151.25221	295.64221	878.95618	-80.19001	273.76172	798.98785	-57.819813	310.92062	800.03876	-135.91151	341.73825	736.88531	-65.299774	-96.276443	1334.8257	-129.21561	-199.10547	1119.5057	-105.94477	-191.83063	1002.5914	-169.77005	-224.77058	952.79535	-91.457352	-224.5873	795.57996	-58.608036	-227.38504	791.68567	-141.84225	-278.7363	727.49066	-79.784554	168.86133	893.70721	-24.614374	-97.647591	876.81213	-16.261168	70.184532	942.90979	-238.85022	-19.180815	940.91968	-238.04974
4	0.03	108.37666	1556.1206	-31.700783	-32.693058	1553.6089	-30.084969	82.945602	1556.1201	-191.9641	-44.981506	1529.0935	-195.32947	39.672878	1341.2087	-213.96646	28.180202	1130.0883	-256.56128	38.391304	1267.0164	-22.776455	45.238964	1074.0171	18.093605	-40.052517	1265.1771	-242.41992	172.12204	1341.8582	-136.72163	263.53485	1205.01	-135.26608	284.68588	1008.519	-151.17381	295.65012	878.95258	-80.118256	273.70502	798.98676	-57.727829	310.90475	800.05396	-135.80356	341.68555	736.89465	-65.194984	-96.309647	1334.8256	-129.19775	-199.12917	1119.4735	-105.98775	-191.83255	1002.5921	-169.7397	-224.71915	952.75555	-91.392853	-224.53123	795.55304	-58.817471	-227.35931	791.64117	-141.81599	-278.65445	727.41162	-79.779526	168.85292	893.70221	-24.535303	-97.666016	876.81946	-16.18717	70.193565	942.95563	-238.79088	-19.180798	940.92157	-237.93909
5	0.04	108.29382	1556.1658	-31.700056	-32.751068	1553.6106	-30.09557	82.903084	1556.1066	-191.98691	-45.025288	1529.0287	-195.35796	39.654343	1341.2233	-213.90642	28.187702	1130.0643	-256.50687	38.351662	1267.0143	-22.737114	45.230419	1074.0287	18.189388	-40.029545	1265.1764	-242.3566	172.09489	1341.8755	-136.69887	263.51978	1205.0343	-135.17467	284.68259	1008.541	-151.04463	295.62695	878.96912	-79.99543	273.67899	799.01959	-57.606472	310.85666	800.04974	-135.68382	341.67038	736.92334	-65.031792	-96.325706	1334.8264	-129.20073	-199.08751	1119.4362	-105.87733	-191.82584	1002.5378	-169.66234	-224.69849	952.74353	-91.377335	-224.41116	795.52734	-58.663414	-227.30478	791.61743	-141.83104	-278.58395	727.37524	-79.782051	168.87962	893.70087	-24.481918	-97.657066	876.77942	-16.127239	70.1716	942.94244	-238.72038	-19.208025	940.92865	-237.89452
6	0.05	108.20037	1556.1937	-31.652723	-32.831505	1553.6128	-30.139261	82.845634	1556.0792	-191.9639	-45.049484	1528.9993	-195.3791	39.648235	1341.1886	-213.82854	28.150442	1130.0161	-256.35593	38.334766	1267.0109	-22.697504	45.223476	1074.0217	18.250797	-40.053268	1265.1776	-242.31354	172.06201	1341.8751	-136.62791	263.50339	1205.0258	-135.09326	284.63043	1008.5288	-150.95183	295.56995	878.99921	-79.896629	273.68872	799.03796	-57.466358	310.86285	800.05701	-135.58398	341.66919	736.92792	-64.933311	-96.338402	1334.803	-129.18297	-199.04509	1119.4158	-105.80343	-191.82713	1002.5325	-169.67665	-224.65459	952.68738	-91.278992	-224.38506	795.46753	-58.674839	-227.29382	791.59222	-141.8186	-278.51352	727.32941	-79.836052	168.84312	893.68237	-24.405415	-97.668633	876.76849	-16.013128	70.174202	942.95123	-238.66789	-19.218365	940.97864	-237.78806
7	0.06	108.09774	1556.2261	-31.640381	-32.916527	1553.6353	-30.130198	82.81443	1556.0486	-191.9614	-45.123352	1528.96	-195.37578	39.623722	1341.1942	-213.75986	28.174429	1129.9974	-256.24979	38.287155	1266.9771	-22.645824	45.248417	1073.9949	18.358734	-40.076454	1265.1669	-242.27876	172.0799	1341.8778	-136.55771	263.49738	1205.0498	-135.02742	284.60635	1008.5472	-150.89224	295.57745	879.00763	-79.750481	273.67584	799.06305	-57.355801	310.8223	800.05048	-135.42894	341.67838	736.96094	-64.790977	-96.361526	1334.7708	-129.06491	-199.03529	1119.3981	-105.83721	-191.78355	1002.5216	-169.71164	-224.61507	952.6413	-91.272675	-224.37758	795.44434	-58.781132	-227.2365	791.58398	-141.88667	-278.46982	727.2619	-79.862129	168.84151	893.6767	-24.359955	-97.678772	876.74078	-16.02775	70.14283	942.95917	-238.62444	-19.226383	940.98706	-237.75388
8	0.07	108.03446	1556.2644	-31.643503	-33.012123	1553.6399	-30.144674	82.778183	1556.0317	-191.91345	-45.158909	1528.9233	-195.38901	39.620102	1341.1807	-213.65794	28.19289	1130.0226	-256.18387	38.298157	1266.9775	-22.544718	45.221836	1074.0123	18.397205	-40.073524	1265.1691	-242.23376	172.08545	1341.8992	-136.46594	263.46817	1205.0349	-134.9073	284.57083	1008.5358	-150.81094	295.53033	879.02991	-79.65937	273.68295	799.07379	-57.187218	310.81851	800.08398	-135.30653	341.68408	736.9928	-64.636703	-96.372871	1334.7623	-129.05099	-199.01961	1119.3881	-105.7681	-191.73718	1002.5038	-169.70476	-224.57228	952.57867	-91.194641	-224.3546	795.37897	-58.589561	-227.18973	791.52148	-141.89749	-278.43658	727.2486	-79.924408	168.87384	893.69177	-24.307741	-97.616394	876.75659	-16.026335	70.149643	942.96515	-238.53365	-19.230642	940.98663	-237.65903
9	0.08	107.97073	1556.2954	-31.644676	-33.116776	1553.6528	-30.1653	82.703125	1556.0282	-191.90613	-45.198795	1528.8888	-195.35944	39.625099	1341.1541	-213.63826	28.167318	1130.0023	-256.1293	38.288811	1266.9781	-22.472525	45.249187	1074.0026	18.466595	-40.052887	1265.1377	-242.15814	172.07816	1341.9072	-136.44528	263.46713	1205.0378	-134.82506	284.57877	1008.5452	-150.68022	295.51901	879.06055	-79.557678	273.62592	799.0907	-57.096149	310.80103	800.08295	-135.14153	341.66351	737.01178	-64.505211	-96.391655	1334.7531	-128.9563	-199.01657	1119.3303	-105.708	-191.68889	1002.5009	-169.6992	-224.59692	952.58203	-91.327606	-224.31157	795.35669	-58.411045	-227.10495	791.49664	-141.98692	-278.42401	727.19043	-79.95977	168.86066	893.67334	-24.233444	-97.655373	876.74872	-15.930487	70.153542	942.98041	-238.52888	-19.271015	941.0517	-237.605
10	0.09	107.85562	1556.3359	-31.575874	-33.176937	1553.647	-30.174856	82.66787	1556.0269	-191.89621	-45.215107	1528.8225	-195.38005	39.622932	1341.1909	-213.56905	28.188902	1129.9943	-256.03494	38.285305	1266.9957	-22.471441	45.257519	1073.9999	18.474442	-40.054379	1265.1653	-242.13596	172.07928	1341.9224	-136.38474	263.4606	1205.0574	-134.72452	284.56305	1008.5726	-150.58549	295.46841	879.10687	-79.433838	273.61456	799.10388	-56.962437	310.75943	800.07697	-134.98711	341.6329	737.03436	-64.345108	-96.387611	1334.7518	-128.93349	-198.96661	1119.3148	-105.61472	-191.66388	1002.5028	-169.70621	-224.53903	952.58661	-91.364403	-224.34558	795.36249	-58.832661	-227.09283	791.47302	-141.97797	-278.38748	727.17664	-80.046478	168.87424	893.66089	-24.217154	-97.647514	876.73828	-15.866774	70.144157	942.98907	-238.44563	-19.281063	941.05536	-237.58765
11	0.1	107.78521	1556.3778	-31.534073	-33.280735	1553.6335	-30.192068	82.643074	1556.0234	-191.82785	-45.267193	1528.7645	-195.37241	39.627193	1341.2137	-213.58115	28.208233	1130.0277	-256.04132	38.236675	1266.9645	-22.399689	45.216854	1073.9802	18.513067	-40.02124	1265.1909	-242.08995	172.10092	1341.9147	-136.2859	263.43246	1205.069	-134.6097	284.5444	1008.5846	-150.45853	295.47842	879.09467	-79.281425	273.62027	799.15637	-56.839355	310.75882	800.09113	-134.8324	341.6301	737.07751	-64.188972	-96.395203	1334.7476	-128.88615	-198.92221	1119.2758	-105.50199	-191.6651	1002.5005	-169.69746	-224.52286	952.50049	-91.196159	-224.29909	795.30676	-58.503319	-227.06316	791.4715	-142.05191	-278.36499	727.1684	-80.138306	168.88631	893.67102	-24.168919	-97.605331	876.73425	-15.855494	70.142159	943.02106	-238.442	-19.314714	941.05157	-237.5054
12	0.11	107.67558	1556.4115	-31.491526	-33.346962	1553.6047	-30.175835	82.593254	1556.0215	-191.80295	-45.279018	1528.7325	-195.42303	39.620945	1341.2184	-213.48357	28.229645	1130.0057	-255.92607	38.240875	1266.974	-22.395313	45.215748	1074.0027	18.486277	-39.997768	1265.2172	-242.07347	172.05397	1341.9271	-136.22546	263.41714	1205.0837	-134.51193	284.50693	1008.6016	-150.30811	295.4537	879.10657	-79.18795	273.5611	799.16589	-56.703045	310.75385	800.08868	-134.67004	341.5983	737.09955	-63.985676	-96.402023	1334.7673	-128.83278	-198.89822	1119.2708	-105.45704	-191.66415	1002.5003	-169.69434	-224.52788	952.51453	-91.293213	-224.24924	795.28107	-58.518452	-227.06404	791.46002	-142.03468	-278.34216	727.14075	-80.124336	168.89883	893.6377	-24.149755	-97.638451	876.71558	-15.813546	70.148666	943.02679	-238.35144	-19.344051	941.04382	-237.44574
